<svg xmlns="http://www.w3.org/2000/svg" width="24" height="24" viewBox="0 0 24 24">
    <path fill="#006DFF" d="M12 3.03c4.954 0 8.97 4.016 8.97 8.97 0 4.954-4.016 8.97-8.97 8.97-4.954 0-8.97-4.016-8.97-8.97 0-4.954 4.016-8.97 8.97-8.97zm0 1c-4.402 0-7.97 3.568-7.97 7.97 0 4.402 3.568 7.97 7.97 7.97 4.402 0 7.97-3.568 7.97-7.97 0-4.402-3.568-7.97-7.97-7.97zm-.007 6.218l.09.006c.242.037.417.244.423.48l-.006.09-.641 4.121.675-.444c.23-.151.54-.087.692.143.135.205.1.473-.072.637l-.07.056-.676.444c-.207.136-.458.19-.703.152-.507-.079-.865-.525-.845-1.025l.01-.117.642-4.12c.033-.212.195-.372.394-.413l.087-.01zm.34-2.426c.446 0 .808.362.808.809 0 .446-.362.808-.809.808-.446 0-.808-.362-.808-.808 0-.447.362-.809.808-.809z"/>
</svg>
